# xmcd CD database file
#
# Track frame offsets:
#	150
#	13735
#	34384
#	51493
#	73298
#	90331
#	105399
#	124797
#	136709
#	151122
#	177420
#	196385
#	210571
#	223008
#
# Disc length: 3111 seconds
#
# Revision: 0
# Processed by: cddbd v1.5.1PL0 Copyright (c) Steve Scherf et al.
# Submitted via: CDex 1.51
#
DISCID=c60c250e
DTITLE=Beth Anne Rankin - Without Words
DYEAR=2005
DGENRE=New Age
TTITLE0=Waltz Of Winter
TTITLE1=Forever February
TTITLE2=Butterfly Dance
TTITLE3=Never Before and Never Again
TTITLE4=I Remember You
TTITLE5=Quiet Time
TTITLE6=Between Friends
TTITLE7=Fly With Me
TTITLE8=Beyond The Sunset
TTITLE9=One September's Eve
TTITLE10=A Day To Remember
TTITLE11=Something Beautiful
TTITLE12=My Song Of Praise
TTITLE13=Never Before and Never Again (Reprise)
EXTD=YEAR: 2005
EXTT0=
EXTT1=
EXTT2=
EXTT3=
EXTT4=
EXTT5=
EXTT6=
EXTT7=
EXTT8=
EXTT9=
EXTT10=
EXTT11=
EXTT12=
EXTT13=
PLAYORDER=
